<?xml version="1.0" standalone="no"?>
<!DOCTYPE svg PUBLIC "-//W3C//DTD SVG 1.1//EN" "http://www.w3.org/Graphics/SVG/1.1/DTD/svg11.dtd">
<svg xmlns="http://www.w3.org/2000/svg" xmlns:xlink="http://www.w3.org/1999/xlink" version="1.1" id="Layer_1" x="0px" y="0px" viewBox="0 0 5000 5000" style="enable-background:new 0 0 5000 5000;" xml:space="preserve" width="5000" height="5000">
<style type="text/css">
	.st0{fill:#394EA1;}
	.st1{fill:#ED1C24;}
	.st2{fill:#2E3192;}
	.st3{fill:#FBB040;}
</style>
<g>
	<g>
		<g>
			<path class="st0" d="M2206.78,856.4L918.79,1560.14c-15.97,8.73-35.34,8.5-51.1-0.6l-161.7-93.35     c-35.26-20.35-34.66-71.45,1.07-90.97l1457.39-796.29c-0.11,3.37-0.16,6.74-0.16,10.17c0,71.17,22.28,137.29,60.22,191.68     C2242.29,806.26,2234.04,841.5,2206.78,856.4z"/>
			<path class="st0" d="M4294.02,1466.15l-161.76,93.39c-15.76,9.1-35.13,9.33-51.11,0.6L2793.27,856.4     c-27.26-14.9-35.51-50.14-17.73-75.62c37.95-54.39,60.23-120.51,60.23-191.68c0-3.37-0.05-6.74-0.16-10.11l1457.34,796.19     C4328.67,1394.69,4329.28,1445.79,4294.02,1466.15z"/>
			<circle class="st0" cx="2500.02" cy="589.1" r="283.05"/>
		</g>
	</g>
	<g>
		<g>
			<g>
				<path class="st1" d="M4123.43,3140.67l36.18-1467.26c0.45-18.2,10.35-34.84,26.12-43.93l161.8-93.18      c35.28-20.32,79.2,5.8,78.2,46.5l-40.96,1660.24c-2.86-1.78-5.76-3.51-8.72-5.23c-61.59-35.65-129.98-49.5-196.06-43.9      C4149.03,3196.53,4122.66,3171.73,4123.43,3140.67z"/>
				<path class="st1" d="M2550.06,4641.64l0.21-186.79c0.02-18.2,9.53-35.08,25.08-44.53l1254.26-762.06      c26.55-16.13,61.18-5.61,74.33,22.53c28.06,60.09,74.13,112.5,135.72,148.15c2.92,1.69,5.86,3.33,8.83,4.93l-1419.16,862.4      C2594.54,4707.42,2550.02,4682.35,2550.06,4641.64z"/>
				<circle class="st1" cx="4207.86" cy="3528.37" r="283.05"/>
			</g>
		</g>
		<g>
			<path d="M876.57,3140.67l-36.18-1467.26c-0.45-18.2-10.35-34.84-26.12-43.93l-161.8-93.18c-35.28-20.32-79.2,5.8-78.2,46.5     l40.96,1660.24c2.86-1.78,5.76-3.51,8.72-5.23c61.59-35.65,129.98-49.5,196.06-43.9     C850.97,3196.53,877.34,3171.73,876.57,3140.67z"/>
			<path d="M2449.94,4641.64l-0.21-186.79c-0.02-18.2-9.53-35.08-25.08-44.53l-1254.26-762.06c-26.55-16.13-61.18-5.61-74.33,22.53     c-28.06,60.09-74.13,112.5-135.72,148.15c-2.92,1.69-5.86,3.33-8.83,4.93l1419.16,862.4     C2405.46,4707.42,2449.98,4682.35,2449.94,4641.64z"/>
			<circle cx="792.14" cy="3528.37" r="283.05"/>
		</g>
	</g>
</g>
<g>
	<path class="st1" d="M1558.14,2701.27c-27.39,0-50.63-9.63-69.74-28.89c-19.11-19.26-28.66-42.35-28.66-69.29v-225.48   c0-27.23,9.63-50.44,28.89-69.63c19.26-19.18,42.43-28.77,69.51-28.77c27.39,0,50.6,9.63,69.63,28.89   c19.03,19.26,28.55,42.43,28.55,69.52v46.95H1592v-48.07c0-9.93-3.5-18.39-10.5-25.39c-7-7-15.46-10.5-25.39-10.5   c-9.78,0-18.13,3.5-25.05,10.5c-6.92,7-10.38,15.46-10.38,25.39v225.93c0,9.93,3.46,18.36,10.38,25.28   c6.92,6.92,15.27,10.38,25.05,10.38c9.93,0,18.39-3.46,25.39-10.38c7-6.92,10.5-15.35,10.5-25.28v-81.03h-34.53v-62.07h98.86   v143.77c0,27.39-9.63,50.6-28.89,69.63C1608.17,2691.76,1585.07,2701.27,1558.14,2701.27z"/>
	<path class="st1" d="M1807.54,2701.27c-27.24,0-50.37-9.51-69.4-28.55c-19.04-19.03-28.55-42.09-28.55-69.18V2284.4h60.71v318.47   c0,9.78,3.5,18.13,10.5,25.05c7,6.92,15.38,10.38,25.17,10.38c9.93,0,18.32-3.46,25.16-10.38c6.85-6.92,10.27-15.27,10.27-25.05   V2284.4h64.78v319.14c0,27.54-9.63,50.71-28.89,69.52C1858.02,2691.87,1834.78,2701.27,1807.54,2701.27z"/>
	<path class="st1" d="M2058.98,2284.4c34.61,0,59.96,9.56,76.06,28.66c14.29,16.7,21.44,39.88,21.44,69.52v59.81   c0,29.19-11.04,53.79-33.12,73.8l45.99,179.89h-66.94l-37.85-155.51c-1.81,0.15-3.68,0.23-5.63,0.23h-35.6v155.28h-62.07V2284.4   H2058.98z M2095.99,2383.71c0-23.93-11.77-35.89-35.33-35.89h-37.35v131.59h37.35c9.9,0,18.26-3.5,25.09-10.49   c6.82-7,10.24-15.39,10.24-25.17V2383.71z"/>
	<path class="st1" d="M2309.96,2701.27c-27.24,0-50.37-9.51-69.4-28.55c-19.04-19.03-28.55-42.09-28.55-69.18V2284.4h60.71v318.47   c0,9.78,3.5,18.13,10.5,25.05c7,6.92,15.38,10.38,25.17,10.38c9.93,0,18.32-3.46,25.16-10.38s10.27-15.27,10.27-25.05V2284.4h64.78   v319.14c0,27.54-9.63,50.71-28.89,69.52C2360.44,2691.87,2337.19,2701.27,2309.96,2701.27z"/>
	<path d="M2525.73,2566.08v130h-62.07V2284.4h62.07v146.71l75.38-146.71h66.36l-84.87,168.37l99.31,243.31h-72.9l-65-166.79   L2525.73,2566.08z"/>
	<path d="M2830.2,2284.4c34.61,0,59.96,9.56,76.06,28.66c14.29,16.7,21.44,39.88,21.44,69.52v59.81c0,29.19-11.04,53.79-33.12,73.8   l45.99,179.89h-66.94l-37.85-155.51c-1.81,0.15-3.68,0.23-5.63,0.23h-35.6v155.28h-62.07V2284.4H2830.2z M2867.22,2383.71   c0-23.93-11.77-35.89-35.33-35.89h-37.35v131.59h37.35c9.9,0,18.26-3.5,25.09-10.49c6.82-7,10.24-15.39,10.24-25.17V2383.71z"/>
	<path d="M3055.91,2696.08h-62.07V2284.4h62.07V2696.08z"/>
	<path d="M3209.16,2284.4c30.25,0,54.32,9.56,72.23,28.66c16.7,18.21,25.05,41.38,25.05,69.52v59.81c0,27.08-9.46,50.26-28.39,69.52   c-18.93,19.26-41.83,28.89-68.72,28.89h-35.83v155.28h-62.07V2284.4H3209.16z M3246.17,2383.71c0-10.84-3.19-19.52-9.56-26.07   c-6.38-6.55-14.96-9.82-25.76-9.82h-37.35v131.59h37.35c9.9,0,18.26-3.5,25.09-10.49c6.82-7,10.24-15.39,10.24-25.17V2383.71z"/>
	<path d="M3395.81,2601.51l-15.12,94.57h-64.55l69.74-411.68h85.54l68.84,411.68h-65l-14.67-94.57H3395.81z M3428.31,2378.74   l-23.02,162.28h46.05L3428.31,2378.74z"/>
</g>
<g>
	<path class="st0" d="M1572.02,2763.16c15.19,0,26.31,4.19,33.38,12.58c6.27,7.33,9.41,17.5,9.41,30.51v26.25   c0,12.81-4.85,23.61-14.53,32.39l20.18,78.95h-29.38l-16.61-68.25c-0.79,0.07-1.62,0.1-2.47,0.1h-15.62v68.15h-27.24v-180.67   H1572.02z M1588.27,2806.75c0-10.5-5.17-15.75-15.5-15.75h-16.39v57.75h16.39c4.34,0,8.01-1.54,11.01-4.61   c2.99-3.07,4.49-6.75,4.49-11.04V2806.75z"/>
	<path class="st0" d="M1639.18,2916.69h27.24v27.24h-27.24V2916.69z"/>
	<path class="st0" d="M1728.33,2946.11c-12.02,0-22.22-4.19-30.61-12.58c-8.39-8.39-12.58-18.56-12.58-30.51v-98.96   c0-11.95,4.23-22.14,12.68-30.56c8.45-8.42,18.62-12.63,30.51-12.63c12.02,0,22.2,4.23,30.56,12.68   c8.35,8.45,12.53,18.62,12.53,30.51v20.6h-28.23v-21.1c0-4.36-1.54-8.07-4.61-11.14c-3.07-3.07-6.78-4.61-11.14-4.61   c-4.3,0-7.96,1.54-10.99,4.61c-3.04,3.07-4.56,6.78-4.56,11.14v99.15c0,4.36,1.52,8.06,4.56,11.1c3.03,3.04,6.7,4.55,10.99,4.55   c4.36,0,8.07-1.52,11.14-4.55c3.07-3.04,4.61-6.74,4.61-11.1v-24.86h28.23v25.16c0,12.02-4.23,22.2-12.68,30.56   C1750.29,2941.94,1740.15,2946.11,1728.33,2946.11z"/>
	<path class="st0" d="M1790.14,2916.69h27.24v27.24h-27.24V2916.69z"/>
	<path class="st0" d="M1944.86,2898.97c0.2,12.61-3.07,23.38-9.81,32.29c-4.42,6.07-10.67,10.33-18.72,12.78   c-4.36,1.39-9.41,2.08-15.15,2.08c-10.7,0-19.55-2.64-26.55-7.92c-5.81-4.36-10.43-10.25-13.87-17.68c-3.43-7.43-5.41-16-5.94-25.7   l25.85-1.78c1.19,10.5,3.99,18.09,8.42,22.78c3.24,3.56,6.97,5.25,11.19,5.05c5.94-0.2,10.7-3.1,14.26-8.72   c1.85-2.84,2.77-6.83,2.77-11.99c0-7.59-3.4-15.09-10.2-22.49c-5.41-5.08-13.5-12.71-24.27-22.88   c-9.05-8.72-15.42-16.54-19.12-23.48c-4.03-7.79-6.04-16.24-6.04-25.36c0-16.44,5.51-28.89,16.54-37.34   c6.8-5.08,15.25-7.63,25.36-7.63c9.71,0,18.03,2.18,24.96,6.54c5.35,3.37,9.67,8.07,12.98,14.11c3.3,6.04,5.31,12.99,6.04,20.85   l-26.15,4.76c-0.73-7.39-2.84-13.14-6.34-17.23c-2.51-3.04-6.11-4.56-10.8-4.56c-4.95,0-8.75,2.21-11.39,6.64   c-2.11,3.57-3.17,7.99-3.17,13.27c0,8.26,3.56,16.67,10.7,25.26c2.71,3.24,6.74,7.07,12.09,11.49c6.34,5.29,10.53,8.98,12.58,11.1   c6.67,6.74,11.85,13.37,15.55,19.91c1.72,3.04,3.1,5.88,4.16,8.52C1943.37,2888.04,1944.72,2893.81,1944.86,2898.97z"/>
	<path class="st0" d="M1967.44,2943.84v-180.67H2045v27.24h-50.32v49.53h36.75v27.24h-36.75v49.43H2045v27.24H1967.44z"/>
	<path class="st0" d="M2106.91,2946.11c-12.02,0-22.22-4.19-30.61-12.58c-8.39-8.39-12.58-18.56-12.58-30.51v-98.96   c0-11.95,4.23-22.14,12.68-30.56c8.45-8.42,18.62-12.63,30.51-12.63c12.02,0,22.2,4.23,30.56,12.68   c8.35,8.45,12.53,18.62,12.53,30.51v20.6h-28.23v-21.1c0-4.36-1.54-8.07-4.61-11.14c-3.07-3.07-6.78-4.61-11.14-4.61   c-4.3,0-7.96,1.54-11,4.61c-3.04,3.07-4.56,6.78-4.56,11.14v99.15c0,4.36,1.52,8.06,4.56,11.1c3.03,3.04,6.7,4.55,11,4.55   c4.36,0,8.07-1.52,11.14-4.55c3.07-3.04,4.61-6.74,4.61-11.1v-24.86h28.23v25.16c0,12.02-4.23,22.2-12.68,30.56   C2128.86,2941.94,2118.73,2946.11,2106.91,2946.11z"/>
	<path class="st0" d="M2215.17,2946.11c-11.95,0-22.11-4.18-30.46-12.53c-8.36-8.35-12.53-18.47-12.53-30.36v-140.06h26.65v139.76   c0,4.29,1.54,7.96,4.61,10.99c3.07,3.04,6.75,4.56,11.04,4.56c4.36,0,8.04-1.52,11.04-4.56c3-3.04,4.51-6.7,4.51-10.99v-139.76   h28.43v140.06c0,12.08-4.23,22.25-12.68,30.51C2237.32,2941.99,2227.12,2946.11,2215.17,2946.11z"/>
	<path class="st0" d="M2325.52,2763.16c15.19,0,26.31,4.19,33.38,12.58c6.27,7.33,9.41,17.5,9.41,30.51v26.25   c0,12.81-4.85,23.61-14.53,32.39l20.18,78.95h-29.38l-16.61-68.25c-0.79,0.07-1.62,0.1-2.47,0.1h-15.62v68.15h-27.24v-180.67   H2325.52z M2341.76,2806.75c0-10.5-5.17-15.75-15.5-15.75h-16.39v57.75h16.39c4.34,0,8.01-1.54,11.01-4.61   c2.99-3.07,4.49-6.75,4.49-11.04V2806.75z"/>
	<path class="st0" d="M2424.57,2943.84h-27.24v-180.67h27.24V2943.84z"/>
	<path class="st0" d="M2475.38,2790.4h-28.92v-27.24h84.99v27.24h-28.83v153.43h-27.24V2790.4z"/>
	<path class="st0" d="M2586.62,2868.16l-36.45-104.99h29.91l20.25,64.88l20.06-64.88h30.11l-36.65,104.99v75.68h-27.24V2868.16z"/>
	<path class="st0" d="M2777.89,2898.97c0.2,12.61-3.07,23.38-9.81,32.29c-4.42,6.07-10.67,10.33-18.72,12.78   c-4.36,1.39-9.41,2.08-15.15,2.08c-10.7,0-19.55-2.64-26.55-7.92c-5.81-4.36-10.43-10.25-13.87-17.68c-3.43-7.43-5.41-16-5.94-25.7   l25.85-1.78c1.19,10.5,3.99,18.09,8.42,22.78c3.24,3.56,6.97,5.25,11.19,5.05c5.94-0.2,10.7-3.1,14.26-8.72   c1.85-2.84,2.77-6.83,2.77-11.99c0-7.59-3.4-15.09-10.2-22.49c-5.41-5.08-13.5-12.71-24.27-22.88   c-9.05-8.72-15.42-16.54-19.12-23.48c-4.03-7.79-6.04-16.24-6.04-25.36c0-16.44,5.51-28.89,16.54-37.34   c6.8-5.08,15.25-7.63,25.36-7.63c9.71,0,18.03,2.18,24.96,6.54c5.35,3.37,9.67,8.07,12.98,14.11c3.3,6.04,5.31,12.99,6.04,20.85   l-26.15,4.76c-0.73-7.39-2.84-13.14-6.34-17.23c-2.51-3.04-6.11-4.56-10.8-4.56c-4.95,0-8.75,2.21-11.39,6.64   c-2.11,3.57-3.17,7.99-3.17,13.27c0,8.26,3.56,16.67,10.7,25.26c2.71,3.24,6.74,7.07,12.09,11.49c6.34,5.29,10.53,8.98,12.58,11.1   c6.67,6.74,11.85,13.37,15.55,19.91c1.72,3.04,3.1,5.88,4.16,8.52C2776.4,2888.04,2777.75,2893.81,2777.89,2898.97z"/>
	<path class="st0" d="M2800.47,2943.84v-180.67h77.56v27.24h-50.32v49.53h36.75v27.24h-36.75v49.43h50.32v27.24H2800.47z"/>
	<path class="st0" d="M2939.64,2763.16c15.19,0,26.31,4.19,33.38,12.58c6.27,7.33,9.41,17.5,9.41,30.51v26.25   c0,12.81-4.85,23.61-14.53,32.39l20.18,78.95h-29.38l-16.61-68.25c-0.79,0.07-1.62,0.1-2.47,0.1h-15.62v68.15h-27.24v-180.67   H2939.64z M2955.88,2806.75c0-10.5-5.17-15.75-15.5-15.75h-16.39v57.75h16.39c4.34,0,8.01-1.54,11.01-4.61   c2.99-3.07,4.49-6.75,4.49-11.04V2806.75z"/>
	<path class="st0" d="M3031.46,2943.84l-32.19-180.67h28.53l22.58,140.65l22.88-140.65h28.53L3069,2943.84H3031.46z"/>
	<path class="st0" d="M3151.91,2943.84h-27.24v-180.67h27.24V2943.84z"/>
	<path class="st0" d="M3219.16,2946.11c-12.02,0-22.22-4.19-30.61-12.58c-8.39-8.39-12.58-18.56-12.58-30.51v-98.96   c0-11.95,4.23-22.14,12.68-30.56c8.45-8.42,18.62-12.63,30.51-12.63c12.02,0,22.2,4.23,30.56,12.68   c8.35,8.45,12.53,18.62,12.53,30.51v20.6h-28.23v-21.1c0-4.36-1.54-8.07-4.61-11.14c-3.07-3.07-6.78-4.61-11.14-4.61   c-4.3,0-7.96,1.54-10.99,4.61c-3.04,3.07-4.56,6.78-4.56,11.14v99.15c0,4.36,1.52,8.06,4.56,11.1c3.03,3.04,6.7,4.55,10.99,4.55   c4.36,0,8.07-1.52,11.14-4.55c3.07-3.04,4.61-6.74,4.61-11.1v-24.86h28.23v25.16c0,12.02-4.23,22.2-12.68,30.56   C3241.12,2941.94,3230.99,2946.11,3219.16,2946.11z"/>
	<path class="st0" d="M3284.54,2943.84v-180.67h77.56v27.24h-50.32v49.53h36.75v27.24h-36.75v49.43h50.32v27.24H3284.54z"/>
	<path class="st0" d="M3470.86,2898.97c0.2,12.61-3.07,23.38-9.81,32.29c-4.42,6.07-10.67,10.33-18.72,12.78   c-4.36,1.39-9.41,2.08-15.15,2.08c-10.7,0-19.55-2.64-26.55-7.92c-5.81-4.36-10.43-10.25-13.87-17.68c-3.43-7.43-5.41-16-5.94-25.7   l25.85-1.78c1.19,10.5,3.99,18.09,8.42,22.78c3.24,3.56,6.97,5.25,11.19,5.05c5.94-0.2,10.7-3.1,14.26-8.72   c1.85-2.84,2.77-6.83,2.77-11.99c0-7.59-3.4-15.09-10.2-22.49c-5.41-5.08-13.5-12.71-24.27-22.88   c-9.05-8.72-15.42-16.54-19.12-23.48c-4.03-7.79-6.04-16.24-6.04-25.36c0-16.44,5.51-28.89,16.54-37.34   c6.8-5.08,15.25-7.63,25.36-7.63c9.71,0,18.03,2.18,24.96,6.54c5.35,3.37,9.67,8.07,12.98,14.11c3.3,6.04,5.31,12.99,6.04,20.85   l-26.15,4.76c-0.73-7.39-2.84-13.14-6.34-17.23c-2.51-3.04-6.11-4.56-10.8-4.56c-4.95,0-8.75,2.21-11.39,6.64   c-2.11,3.57-3.17,7.99-3.17,13.27c0,8.26,3.56,16.67,10.7,25.26c2.71,3.24,6.74,7.07,12.09,11.49c6.34,5.29,10.53,8.98,12.58,11.1   c6.67,6.74,11.85,13.37,15.55,19.91c1.72,3.04,3.1,5.88,4.16,8.52C3469.37,2888.04,3470.72,2893.81,3470.86,2898.97z"/>
</g>
<g>
	<polygon class="st1" points="2500,1629.99 2569.81,1844.83 2795.71,1844.83 2612.95,1977.61 2682.76,2192.46 2500,2059.68    2317.24,2192.46 2387.05,1977.61 2204.29,1844.83 2430.19,1844.83  "/>
	<g>
		<polygon class="st1" points="3054.22,1765.63 3103.66,1917.79 3263.65,1917.79 3134.21,2011.83 3183.65,2163.99 3054.22,2069.95     2924.78,2163.99 2974.22,2011.83 2844.79,1917.79 3004.78,1917.79   "/>
		<polygon class="st1" points="1945.78,1765.63 1995.22,1917.79 2155.21,1917.79 2025.78,2011.83 2075.22,2163.99 1945.78,2069.95     1816.35,2163.99 1865.79,2011.83 1736.35,1917.79 1896.34,1917.79   "/>
	</g>
</g>
<g>
	<polygon class="st1" points="2169.14,3314.85 1689.38,3052.71 3310.62,3052.71 2830.82,3314.85  "/>
	<polygon class="st2" points="2203.78,3423.2 2796.22,3423.2 2500,3565.83  "/>
</g>
<g>
	<g>
		<g>
			<path class="st3" d="M1727.17,1520.93c-64.71,44.87-86.13,126-86.13,126s83.5,8.39,148.21-36.48c64.71-44.87,86.13-126,86.13-126     S1791.89,1476.06,1727.17,1520.93z"/>
			<g>
				<g>
					<path class="st3" d="M1873.01,3513.26c41.11,70.34,34.03,145.95,33.32,146.1c0.06,0.98-100.38-42.18-137.8-118.71       c-37.55-75.63-5.1-144.46-5.81-144.35C1762.89,3397.03,1831.89,3443.52,1873.01,3513.26z"/>
					<path class="st3" d="M1770.36,3724.02c93.68-3.28,137.13-67.96,137.03-67.35c-1.12,0.19-95.48-41.29-181.38-42.67       c-86.81-1.05-144.1,45.27-144.18,45.84C1580.59,3659.95,1675.63,3727.53,1770.36,3724.02z"/>
				</g>
				<g>
					<path class="st3" d="M1702.59,3409.44c24.76,74.41,2.73,145.8,2.08,145.84c-0.04,0.98-85.67-56.85-106.41-136.81       c-20.95-79.1,23.12-140.1,22.46-140.08C1620.78,3279.13,1677.74,3335.61,1702.59,3409.44z"/>
					<path class="st3" d="M1563.84,3595.17c89.01,12.21,142.51-42.9,142.36-42.3c-1.02,0.02-81.2-55.2-162.68-70.86       c-82.32-15.47-146.13,19.53-146.28,20.07C1396.09,3502.01,1473.85,3583.04,1563.84,3595.17z"/>
				</g>
				<g>
					<path class="st3" d="M1560.68,3280.89c9.53,76.02-25.44,141.06-26.03,141.01c-0.16,0.96-70.74-69.14-75.9-150.03       c-5.45-80.07,48.18-131.63,47.59-131.72C1506.29,3140.88,1550.99,3205.44,1560.68,3280.89z"/>
					<path class="st3" d="M1392.38,3436.68c82.93,26.78,144.41-17.42,144.2-16.85c-0.92-0.13-66.75-66.8-142.39-95.88       c-76.42-29.01-144.66-6.14-144.87-5.63C1248.27,3318.08,1308.53,3409.84,1392.38,3436.68z"/>
				</g>
				<g>
					<path class="st3" d="M1447.78,3132.19c-4.58,75.35-50.44,132.24-50.97,132.1c-0.27,0.92-55.58-79.06-46.29-158.56       c8.92-78.75,70.09-119.59,69.54-119.76C1419.89,2986.69,1452.11,3057.37,1447.78,3132.19z"/>
					<path class="st3" d="M1256.52,3254.13c75.44,40.25,142.8,7.97,142.53,8.49c-0.82-0.26-52.13-76.11-120.53-117.55       c-69.11-41.49-139.66-31.22-139.93-30.74C1137.65,3113.95,1180.23,3213.68,1256.52,3254.13z"/>
				</g>
				<g>
					<path class="st3" d="M1364.38,2967.93c-17.56,72.6-72.27,119.85-72.75,119.64c-0.38,0.86-40.2-86.58-17.58-162.58       c22.17-75.3,88.79-104.47,88.3-104.72C1362.08,2820.96,1381.61,2895.82,1364.38,2967.93z"/>
					<path class="st3" d="M1156.78,3053.12c66.53,52.42,137.66,32.74,137.32,33.22c-0.72-0.38-37.34-83.12-97.07-135.65       c-60.39-52.69-131.12-55.19-131.44-54.76C1064.75,2895.4,1089.47,3000.39,1156.78,3053.12z"/>
				</g>
				<g>
					<path class="st3" d="M1310.98,2792.73c-29.4,67.97-90.92,104.4-91.34,104.12c-0.5,0.8-24.59-91.72,10.22-162.27       c34.28-69.94,104.29-86.78,103.86-87.1C1333.35,2648.1,1339.98,2725.2,1310.98,2792.73z"/>
					<path class="st3" d="M1093.7,2839.28c56.19,63.08,128.96,56.39,128.57,56.81c-0.62-0.48-22.37-87.82-72.02-150.02       c-50.24-62.44-119.01-77.54-119.4-77.16C1030.11,2668.27,1036.8,2775.77,1093.7,2839.28z"/>
				</g>
				<g>
					<path class="st3" d="M1288.09,2611.21c-40.11,61.63-106.34,86.4-106.72,86.06c-0.61,0.71-8.74-94.45,37.12-157.83       c45.24-62.85,116.57-67.04,116.2-67.42C1334.19,2472.58,1327.71,2549.94,1288.09,2611.21z"/>
					<path class="st3" d="M1067.82,2618.23c44.42,72.05,116.72,78.4,116.26,78.75c-0.51-0.57-7.23-90.24-45.37-160.43       c-38.66-70.53-103.33-97.75-103.77-97.43C1034.3,2438.38,1022.74,2545.65,1067.82,2618.23z"/>
				</g>
				<g>
					<path class="st3" d="M1296.2,2428.01c-49.66,53.79-118.56,66.36-118.87,65.97c-0.72,0.61,7.33-94.78,63.08-149.43       c55.06-54.22,125.61-45.76,125.29-46.19C1365.1,2298.84,1345.28,2374.51,1296.2,2428.01z"/>
					<path class="st3" d="M1079.65,2395.65c31.22,79.13,100.89,98.26,100.36,98.54c-0.41-0.63,8.09-90.35-17.1-166.71       c-25.65-76.77-84.04-115.31-84.55-115.07C1077.82,2211.57,1047.85,2315.9,1079.65,2395.65z"/>
				</g>
				<g>
					<path class="st3" d="M1335.81,2247.8c-58.04,44.64-127.53,44.79-127.78,44.36c-0.84,0.49,23.63-92.7,88.13-137.27       c63.73-44.25,131.39-23.44,131.13-23.91C1426.56,2131.37,1393.2,2203.36,1335.81,2247.8z"/>
					<path class="st3" d="M1129.74,2177.2c16.56,84.12,81.45,115.45,80.87,115.64c-0.31-0.68,23.57-88.18,12.77-168.66       c-11.19-80.96-61.15-129.71-61.72-129.55C1161.24,1993.73,1112.65,2092.37,1129.74,2177.2z"/>
				</g>
				<g>
					<path class="st3" d="M1407.41,2075.26c-65.28,34.36-133.24,22.2-133.44,21.73c-0.95,0.36,40.15-88.2,112.24-121.52       c71.24-33.12,133.9-0.59,133.7-1.09C1519.08,1974.65,1471.97,2041,1407.41,2075.26z"/>
					<path class="st3" d="M1218.61,1968.57c0.47,86.83,58.42,129.46,57.77,129.56c-0.2-0.72,39.23-83.7,44.27-166.09       c4.72-82.9-34.62-140.44-35.26-140.36C1285.07,1790.73,1217.69,1880.96,1218.61,1968.57z"/>
				</g>
				<g>
					<path class="st3" d="M1511.52,1915.09c-71.35,23.16-135.69-0.91-135.83-1.4c-1.07,0.21,56.91-81.27,135.42-102.37       c77.57-21.04,133.12,22.28,132.98,21.75C1643.14,1833.2,1582.06,1891.91,1511.52,1915.09z"/>
					<path class="st3" d="M1346.81,1775.46c-17.09,87.06,31.74,139.77,31.04,139.78c-0.1-0.74,55.06-76.94,77.4-158.79       c22.08-82.41-4.45-146.97-5.15-147C1449.87,1608.47,1363.51,1687.57,1346.81,1775.46z"/>
				</g>
				<g>
					<path class="st3" d="M1648.64,1771.99c-76.24,11.21-134.84-24.03-134.92-24.53c-1.18,0.04,73.89-71.91,157.65-80.01       c82.74-8.18,129.03,44.65,128.95,44.11C1799.24,1711.55,1723.98,1760.64,1648.64,1771.99z"/>
					<path class="st3" d="M1514.86,1603.61c-36.11,84.62,1.42,145.88,0.66,145.77c0.01-0.74,71.06-67.89,112.16-146.58       c40.9-79.28,29.38-148.8,28.62-148.93C1656.18,1452.87,1550.65,1518.12,1514.86,1603.61z"/>
				</g>
			</g>
			<g>
				<path class="st3" d="M2196.82,3721.78l0.7-16.3c-135.08-5.8-266.14-38.49-389.53-97.17c-120.22-57.17-228-136.45-320.34-235.62      c-191.63-205.8-296.67-476.91-295.77-763.41c0.74-234.59,43.74-437.98,127.8-604.5c90.27-178.81,225.93-310.02,403.23-389.98      l-6.71-14.88c-180.78,81.53-319.1,215.27-411.09,397.5c-85.22,168.81-128.8,374.65-129.55,611.8      c-0.91,290.65,105.68,565.73,300.15,774.58c93.75,100.68,203.19,181.17,325.28,239.23      C1926.36,3682.67,2059.54,3715.88,2196.82,3721.78z"/>
			</g>
		</g>
		<g>
			<path class="st3" d="M3272.83,1520.93c64.71,44.87,86.13,126,86.13,126s-83.5,8.39-148.21-36.48     c-64.71-44.87-86.13-126-86.13-126S3208.11,1476.06,3272.83,1520.93z"/>
			<g>
				<g>
					<path class="st3" d="M3126.99,3513.26c-41.11,70.34-34.03,145.95-33.32,146.1c-0.06,0.98,100.38-42.18,137.8-118.71       c37.55-75.63,5.1-144.46,5.81-144.35C3237.11,3397.03,3168.11,3443.52,3126.99,3513.26z"/>
					<path class="st3" d="M3229.64,3724.02c-93.68-3.28-137.13-67.96-137.03-67.35c1.12,0.19,95.48-41.29,181.38-42.67       c86.81-1.05,144.1,45.27,144.18,45.84C3419.41,3659.95,3324.37,3727.53,3229.64,3724.02z"/>
				</g>
				<g>
					<path class="st3" d="M3297.41,3409.44c-24.76,74.41-2.73,145.8-2.08,145.84c0.04,0.98,85.68-56.85,106.41-136.81       c20.95-79.1-23.12-140.1-22.46-140.08C3379.22,3279.13,3322.26,3335.61,3297.41,3409.44z"/>
					<path class="st3" d="M3436.16,3595.17c-89.01,12.21-142.51-42.9-142.36-42.3c1.03,0.02,81.21-55.2,162.68-70.86       c82.32-15.47,146.13,19.53,146.28,20.07C3603.91,3502.01,3526.15,3583.04,3436.16,3595.17z"/>
				</g>
				<g>
					<path class="st3" d="M3439.32,3280.89c-9.53,76.02,25.44,141.06,26.03,141.01c0.16,0.96,70.74-69.14,75.9-150.03       c5.45-80.07-48.18-131.63-47.59-131.72C3493.71,3140.88,3449.01,3205.44,3439.32,3280.89z"/>
					<path class="st3" d="M3607.62,3436.68c-82.93,26.78-144.41-17.42-144.2-16.85c0.92-0.13,66.75-66.8,142.39-95.88       c76.42-29.01,144.66-6.14,144.87-5.63C3751.73,3318.08,3691.47,3409.84,3607.62,3436.68z"/>
				</g>
				<g>
					<path class="st3" d="M3552.22,3132.19c4.58,75.35,50.44,132.24,50.97,132.1c0.27,0.92,55.58-79.06,46.29-158.56       c-8.92-78.75-70.09-119.59-69.54-119.76C3580.11,2986.69,3547.89,3057.37,3552.22,3132.19z"/>
					<path class="st3" d="M3743.48,3254.13c-75.44,40.25-142.8,7.97-142.53,8.49c0.82-0.26,52.13-76.11,120.53-117.55       c69.11-41.49,139.66-31.22,139.93-30.74C3862.35,3113.95,3819.77,3213.68,3743.48,3254.13z"/>
				</g>
				<g>
					<path class="st3" d="M3635.62,2967.93c17.56,72.6,72.27,119.85,72.75,119.64c0.38,0.86,40.2-86.58,17.58-162.58       c-22.17-75.3-88.79-104.47-88.3-104.72C3637.92,2820.96,3618.39,2895.82,3635.62,2967.93z"/>
					<path class="st3" d="M3843.22,3053.12c-66.53,52.42-137.66,32.74-137.32,33.22c0.72-0.38,37.34-83.12,97.07-135.65       c60.39-52.69,131.12-55.19,131.44-54.76C3935.25,2895.4,3910.53,3000.39,3843.22,3053.12z"/>
				</g>
				<g>
					<path class="st3" d="M3689.01,2792.73c29.4,67.97,90.92,104.4,91.34,104.12c0.5,0.8,24.59-91.72-10.22-162.27       c-34.28-69.94-104.29-86.78-103.86-87.1C3666.65,2648.1,3660.02,2725.2,3689.01,2792.73z"/>
					<path class="st3" d="M3906.3,2839.28c-56.19,63.08-128.96,56.39-128.57,56.81c0.62-0.48,22.37-87.82,72.02-150.02       c50.24-62.44,119.01-77.54,119.4-77.16C3969.89,2668.27,3963.21,2775.77,3906.3,2839.28z"/>
				</g>
				<g>
					<path class="st3" d="M3711.91,2611.21c40.11,61.63,106.34,86.4,106.72,86.06c0.61,0.71,8.74-94.45-37.12-157.83       c-45.24-62.85-116.57-67.04-116.2-67.42C3665.81,2472.58,3672.29,2549.94,3711.91,2611.21z"/>
					<path class="st3" d="M3932.18,2618.23c-44.42,72.05-116.72,78.4-116.26,78.75c0.51-0.57,7.23-90.24,45.37-160.43       c38.66-70.53,103.33-97.75,103.77-97.43C3965.7,2438.38,3977.26,2545.65,3932.18,2618.23z"/>
				</g>
				<g>
					<path class="st3" d="M3703.8,2428.01c49.66,53.79,118.56,66.36,118.87,65.97c0.72,0.61-7.33-94.78-63.08-149.43       c-55.06-54.22-125.61-45.76-125.29-46.19C3634.9,2298.84,3654.72,2374.51,3703.8,2428.01z"/>
					<path class="st3" d="M3920.35,2395.65c-31.22,79.13-100.89,98.26-100.36,98.54c0.41-0.63-8.09-90.35,17.1-166.71       c25.65-76.77,84.04-115.31,84.55-115.07C3922.18,2211.57,3952.15,2315.9,3920.35,2395.65z"/>
				</g>
				<g>
					<path class="st3" d="M3664.19,2247.8c58.04,44.64,127.53,44.79,127.78,44.36c0.84,0.49-23.63-92.7-88.13-137.27       c-63.73-44.25-131.39-23.44-131.13-23.91C3573.44,2131.37,3606.8,2203.36,3664.19,2247.8z"/>
					<path class="st3" d="M3870.26,2177.2c-16.56,84.12-81.45,115.45-80.87,115.64c0.31-0.68-23.57-88.18-12.77-168.66       c11.19-80.96,61.15-129.71,61.72-129.55C3838.76,1993.73,3887.35,2092.37,3870.26,2177.2z"/>
				</g>
				<g>
					<path class="st3" d="M3592.59,2075.26c65.28,34.36,133.24,22.2,133.44,21.73c0.95,0.36-40.15-88.2-112.24-121.52       c-71.24-33.12-133.9-0.59-133.7-1.09C3480.92,1974.65,3528.03,2041,3592.59,2075.26z"/>
					<path class="st3" d="M3781.39,1968.57c-0.47,86.83-58.42,129.46-57.77,129.56c0.2-0.72-39.23-83.7-44.27-166.09       c-4.72-82.9,34.62-140.44,35.26-140.36C3714.93,1790.73,3782.31,1880.96,3781.39,1968.57z"/>
				</g>
				<g>
					<path class="st3" d="M3488.48,1915.09c71.35,23.16,135.69-0.91,135.83-1.4c1.07,0.21-56.91-81.27-135.42-102.37       c-77.57-21.04-133.12,22.28-132.98,21.75C3356.86,1833.2,3417.94,1891.91,3488.48,1915.09z"/>
					<path class="st3" d="M3653.19,1775.46c17.09,87.06-31.74,139.77-31.04,139.78c0.1-0.74-55.06-76.94-77.4-158.79       c-22.08-82.41,4.45-146.97,5.15-147C3550.13,1608.47,3636.49,1687.57,3653.19,1775.46z"/>
				</g>
				<g>
					<path class="st3" d="M3351.36,1771.99c76.24,11.21,134.84-24.03,134.92-24.53c1.18,0.04-73.89-71.91-157.64-80.01       c-82.74-8.18-129.03,44.65-128.95,44.11C3200.76,1711.55,3276.02,1760.64,3351.36,1771.99z"/>
					<path class="st3" d="M3485.14,1603.61c36.11,84.62-1.42,145.88-0.66,145.77c-0.01-0.74-71.06-67.89-112.16-146.58       c-40.9-79.28-29.38-148.8-28.62-148.93C3343.82,1452.87,3449.35,1518.12,3485.14,1603.61z"/>
				</g>
			</g>
			<g>
				<path class="st3" d="M2803.18,3721.78l-0.7-16.3c135.08-5.8,266.14-38.49,389.53-97.17c120.22-57.17,228-136.45,320.34-235.62      c191.63-205.8,296.67-476.91,295.77-763.41c-0.74-234.59-43.74-437.98-127.8-604.5c-90.27-178.81-225.93-310.02-403.23-389.98      l6.71-14.88c180.78,81.53,319.1,215.27,411.09,397.5c85.22,168.81,128.8,374.65,129.55,611.8      c0.91,290.65-105.68,565.73-300.15,774.58c-93.75,100.68-203.19,181.17-325.28,239.23      C3073.64,3682.67,2940.46,3715.88,2803.18,3721.78z"/>
			</g>
		</g>
	</g>
	<g>
		<g>
			<path class="st3" d="M2912.68,4061.9c1.1,1.26,8.99,10,21.54,9.64c9.26-0.26,15.46-5.32,17.25-6.91     c-1.99-0.42-16.15-3.68-22.71-16.9c-6.66-13.41-2.18-30.36,9.33-39.32c15.56-12.11,35.18-2.77,36.91-1.91     c18.18,9.03,21.26,29.59,21.74,33.35c2.79,22.18-11.06,49.34-34.96,54.33c-15.48,3.23-34.25-3.04-43.47-17.01     C2914.62,4071.56,2913.24,4065.91,2912.68,4061.9z"/>
			<path class="st3" d="M2830.46,3997.56c-21.85,7.97-26.84,41.01-27.1,42.89c-1.31,9.5-2.12,15.37,1.48,20.43     c4.99,7.02,18.53,7.04,45.41,6.78c41.15-0.39,42.96-0.63,46.56-2.55c23.79-12.72,34.34-50.41,23.91-61.4     c-5.27-5.55-17.27-5.75-23.57-0.92c-5.4,4.14-3.52,9.62-10.05,20c-5.63,8.94-13.17,14.64-14.31,13.77     c-2.07-1.59,18.55-23.55,12.09-34.44c-3.2-5.39-12.38-6.96-18.31-6.5c-2.22,0.17-6.88,0.53-11.05,3.73     c-7.32,5.63-4.11,13.12-11.42,23.04c-5.16,6.99-12,10.37-12.48,9.85c-0.51-0.55,6.09-5.26,9.94-14.29     c2.66-6.25,5.03-16.94,0.4-20.62C2838.55,3994.61,2832.69,3996.75,2830.46,3997.56z"/>
			<path class="st3" d="M2732.91,4096.58c0.01-1.43-0.06-8.71-5.65-13.94c-6.18-5.77-14.36-4.62-16.18-4.37     c-11.9,1.67-21.07,13.6-23.08,25.33c-2.46,14.44,6.48,25.41,7.38,26.48c15.59,18.5,45.83,10.46,49.2,9.52     c10.91-3.06,18.15-8.64,19.98-10.1c29.49-23.5,17.23-64.62,37.71-111.9c5.8-13.41,16.66-32.88,38.57-53.24     c-0.5,2.18-1.97,9.77,2.31,16.51c6.58,10.35,20.83,9.4,24.19,9.03c14.27-1.56,22.06-13.32,23.34-15.35     c8.08-12.72,6.46-29.4-1.18-40.84c-10.29-15.43-28.68-17.16-32.73-17.49c-30.75-2.52-54.11,25.04-55.69,26.96     c-15.41,18.71-11.76,33.22-29.23,46.83c-9.35,7.29-19.34,10.1-25.9,11.35c4.51,6.25,10.24,16.23,12.23,29.41     C2763.59,4066.6,2736.33,4093.33,2732.91,4096.58z"/>
			<path class="st3" d="M2743.54,4046.75c-108.15-27.27-470.35-132.97-656.28-469.32c-42.48-76.86-68.48-152.58-84.35-221.12     c41.42,80.97,103.09,179.26,194.79,276.12c207.92,219.64,449.6,304.59,575.41,338.52c-1.58,3.44-5.07,9.76-12.03,14.91     c-11.19,8.27-23.39,7.62-26.78,7.33c-90.22-22.07-238.84-70.6-390.96-183.92c-136.44-101.63-220.88-214.55-268.6-289.89     c39.66,68.42,99.21,153.43,187.09,235.67c172.85,161.76,361.1,224.68,464.57,250.6c2.86,1.04,4.99,2.29,6.41,3.25     c1.82,1.23,11.91,8.35,12.57,20.51c0,0.04,0.01,0.11,0.01,0.26C2745.74,4036.78,2744.64,4042.68,2743.54,4046.75z"/>
		</g>
		<g>
			<path class="st3" d="M2087.32,4061.9c-1.1,1.26-8.99,10-21.54,9.64c-9.26-0.26-15.46-5.32-17.25-6.91     c1.99-0.42,16.15-3.68,22.71-16.9c6.66-13.41,2.18-30.36-9.33-39.32c-15.56-12.11-35.18-2.77-36.91-1.91     c-18.18,9.03-21.26,29.59-21.74,33.35c-2.79,22.18,11.06,49.34,34.96,54.33c15.48,3.23,34.25-3.04,43.47-17.01     C2085.38,4071.56,2086.76,4065.91,2087.32,4061.9z"/>
			<path class="st3" d="M2169.54,3997.56c21.85,7.97,26.84,41.01,27.1,42.89c1.31,9.5,2.12,15.37-1.48,20.43     c-4.99,7.02-18.53,7.04-45.41,6.78c-41.15-0.39-42.96-0.63-46.56-2.55c-23.79-12.72-34.34-50.41-23.91-61.4     c5.27-5.55,17.27-5.75,23.57-0.92c5.4,4.14,3.52,9.62,10.05,20c5.63,8.94,13.17,14.64,14.31,13.77     c2.07-1.59-18.55-23.55-12.09-34.44c3.2-5.39,12.38-6.96,18.31-6.5c2.22,0.17,6.88,0.53,11.05,3.73     c7.32,5.63,4.11,13.12,11.42,23.04c5.16,6.99,12,10.37,12.48,9.85c0.51-0.55-6.09-5.26-9.94-14.29     c-2.66-6.25-5.03-16.94-0.4-20.62C2161.45,3994.61,2167.31,3996.75,2169.54,3997.56z"/>
			<path class="st3" d="M2267.09,4096.58c-0.01-1.43,0.06-8.71,5.65-13.94c6.18-5.77,14.36-4.62,16.18-4.37     c11.9,1.67,21.07,13.6,23.08,25.33c2.46,14.44-6.48,25.41-7.38,26.48c-15.59,18.5-45.83,10.46-49.2,9.52     c-10.91-3.06-18.15-8.64-19.98-10.1c-29.49-23.5-17.23-64.62-37.71-111.9c-5.8-13.41-16.66-32.88-38.57-53.24     c0.5,2.18,1.97,9.77-2.31,16.51c-6.58,10.35-20.83,9.4-24.19,9.03c-14.27-1.56-22.06-13.32-23.34-15.35     c-8.08-12.72-6.46-29.4,1.18-40.84c10.29-15.43,28.68-17.16,32.73-17.49c30.75-2.52,54.11,25.04,55.69,26.96     c15.41,18.71,11.76,33.22,29.23,46.83c9.35,7.29,19.34,10.1,25.9,11.35c-4.51,6.25-10.24,16.23-12.23,29.41     C2236.41,4066.6,2263.67,4093.33,2267.09,4096.58z"/>
			<path class="st3" d="M2256.46,4046.75c108.15-27.27,470.35-132.97,656.28-469.32c42.48-76.86,68.48-152.58,84.35-221.12     c-41.42,80.97-103.09,179.26-194.79,276.12c-207.92,219.64-449.6,304.59-575.41,338.52c1.58,3.44,5.07,9.76,12.03,14.91     c11.19,8.27,23.39,7.62,26.78,7.33c90.22-22.07,238.84-70.6,390.96-183.92c136.44-101.63,220.88-214.55,268.6-289.89     c-39.66,68.42-99.21,153.43-187.09,235.67c-172.85,161.76-361.1,224.68-464.57,250.6c-2.86,1.04-4.99,2.29-6.41,3.25     c-1.82,1.23-11.91,8.35-12.57,20.51c0,0.04-0.01,0.11-0.01,0.26C2254.26,4036.78,2255.36,4042.68,2256.46,4046.75z"/>
		</g>
	</g>
</g>
</svg>